<mxfile host="Electron" agent="Mozilla/5.0 (X11; Linux x86_64) AppleWebKit/537.36 (KHTML, like Gecko) draw.io/25.0.2 Chrome/128.0.6613.186 Electron/32.2.7 Safari/537.36" version="25.0.2">
  <diagram name="Page-1" id="MqZeGh7VGKmyVvnbTxtp">
    <mxGraphModel dx="697" dy="707" grid="1" gridSize="10" guides="1" tooltips="1" connect="1" arrows="1" fold="1" page="1" pageScale="1" pageWidth="827" pageHeight="1169" background="none" math="0" shadow="0">
      <root>
        <mxCell id="0" />
        <mxCell id="1" parent="0" />
        <mxCell id="hCfFOBcKqYTTyQITyhyD-1" value="a" style="rounded=1;whiteSpace=wrap;html=1;fillColor=#333333;fontFamily=monospace;" parent="1" vertex="1">
          <mxGeometry x="40" y="320" width="40" height="40" as="geometry" />
        </mxCell>
        <mxCell id="hCfFOBcKqYTTyQITyhyD-8" style="edgeStyle=orthogonalEdgeStyle;rounded=0;orthogonalLoop=1;jettySize=auto;html=1;fontFamily=monospace;fontSize=12;fontColor=default;" parent="1" source="hCfFOBcKqYTTyQITyhyD-5" target="hCfFOBcKqYTTyQITyhyD-1" edge="1">
          <mxGeometry relative="1" as="geometry" />
        </mxCell>
        <mxCell id="hCfFOBcKqYTTyQITyhyD-5" value="E" style="rounded=1;whiteSpace=wrap;html=1;fillColor=#333333;fontFamily=monospace;" parent="1" vertex="1">
          <mxGeometry x="40" y="240" width="40" height="40" as="geometry" />
        </mxCell>
        <mxCell id="hCfFOBcKqYTTyQITyhyD-16" style="edgeStyle=orthogonalEdgeStyle;rounded=0;orthogonalLoop=1;jettySize=auto;html=1;fontFamily=monospace;fontSize=12;fontColor=default;" parent="1" source="hCfFOBcKqYTTyQITyhyD-11" target="hCfFOBcKqYTTyQITyhyD-14" edge="1">
          <mxGeometry relative="1" as="geometry" />
        </mxCell>
        <mxCell id="hCfFOBcKqYTTyQITyhyD-17" style="rounded=0;orthogonalLoop=1;jettySize=auto;html=1;fontFamily=monospace;fontSize=12;fontColor=default;" parent="1" source="hCfFOBcKqYTTyQITyhyD-11" target="hCfFOBcKqYTTyQITyhyD-5" edge="1">
          <mxGeometry relative="1" as="geometry" />
        </mxCell>
        <mxCell id="hCfFOBcKqYTTyQITyhyD-18" style="rounded=0;orthogonalLoop=1;jettySize=auto;html=1;fontFamily=monospace;fontSize=12;fontColor=default;" parent="1" source="hCfFOBcKqYTTyQITyhyD-11" target="hCfFOBcKqYTTyQITyhyD-28" edge="1">
          <mxGeometry relative="1" as="geometry">
            <mxPoint x="-107.5" y="240" as="targetPoint" />
          </mxGeometry>
        </mxCell>
        <mxCell id="hCfFOBcKqYTTyQITyhyD-11" value="E" style="rounded=1;whiteSpace=wrap;html=1;fillColor=#333333;fontFamily=monospace;" parent="1" vertex="1">
          <mxGeometry x="110" y="160" width="40" height="40" as="geometry" />
        </mxCell>
        <mxCell id="hCfFOBcKqYTTyQITyhyD-14" value="+" style="rounded=1;whiteSpace=wrap;html=1;fillColor=#333333;fontFamily=monospace;" parent="1" vertex="1">
          <mxGeometry x="110" y="240" width="40" height="40" as="geometry" />
        </mxCell>
        <mxCell id="hCfFOBcKqYTTyQITyhyD-23" value="a" style="rounded=1;whiteSpace=wrap;html=1;fillColor=#333333;fontFamily=monospace;" parent="1" vertex="1">
          <mxGeometry x="180" y="320" width="40" height="40" as="geometry" />
        </mxCell>
        <mxCell id="hCfFOBcKqYTTyQITyhyD-24" value="a" style="rounded=1;whiteSpace=wrap;html=1;fillColor=#333333;fontFamily=monospace;" parent="1" vertex="1">
          <mxGeometry x="320" y="320" width="40" height="40" as="geometry" />
        </mxCell>
        <mxCell id="hCfFOBcKqYTTyQITyhyD-27" style="edgeStyle=orthogonalEdgeStyle;rounded=0;orthogonalLoop=1;jettySize=auto;html=1;fontFamily=monospace;fontSize=12;fontColor=default;" parent="1" source="hCfFOBcKqYTTyQITyhyD-28" target="hCfFOBcKqYTTyQITyhyD-23" edge="1">
          <mxGeometry relative="1" as="geometry" />
        </mxCell>
        <mxCell id="hCfFOBcKqYTTyQITyhyD-28" value="E" style="rounded=1;whiteSpace=wrap;html=1;fillColor=#333333;fontFamily=monospace;" parent="1" vertex="1">
          <mxGeometry x="180" y="240" width="40" height="40" as="geometry" />
        </mxCell>
        <mxCell id="hCfFOBcKqYTTyQITyhyD-29" style="edgeStyle=orthogonalEdgeStyle;rounded=0;orthogonalLoop=1;jettySize=auto;html=1;fontFamily=monospace;fontSize=12;fontColor=default;" parent="1" source="hCfFOBcKqYTTyQITyhyD-30" target="hCfFOBcKqYTTyQITyhyD-24" edge="1">
          <mxGeometry relative="1" as="geometry" />
        </mxCell>
        <mxCell id="hCfFOBcKqYTTyQITyhyD-30" value="E" style="rounded=1;whiteSpace=wrap;html=1;fillColor=#333333;fontFamily=monospace;" parent="1" vertex="1">
          <mxGeometry x="320" y="240" width="40" height="40" as="geometry" />
        </mxCell>
        <mxCell id="hCfFOBcKqYTTyQITyhyD-35" value="*" style="rounded=1;whiteSpace=wrap;html=1;fillColor=#333333;fontFamily=monospace;" parent="1" vertex="1">
          <mxGeometry x="250" y="240" width="40" height="40" as="geometry" />
        </mxCell>
        <mxCell id="hCfFOBcKqYTTyQITyhyD-36" style="edgeStyle=none;shape=connector;rounded=0;orthogonalLoop=1;jettySize=auto;html=1;strokeColor=default;align=center;verticalAlign=middle;fontFamily=monospace;fontSize=12;fontColor=default;labelBackgroundColor=default;endArrow=classic;" parent="1" source="hCfFOBcKqYTTyQITyhyD-39" target="hCfFOBcKqYTTyQITyhyD-35" edge="1">
          <mxGeometry relative="1" as="geometry" />
        </mxCell>
        <mxCell id="hCfFOBcKqYTTyQITyhyD-37" style="edgeStyle=none;shape=connector;rounded=0;orthogonalLoop=1;jettySize=auto;html=1;strokeColor=default;align=center;verticalAlign=middle;fontFamily=monospace;fontSize=12;fontColor=default;labelBackgroundColor=default;endArrow=classic;" parent="1" source="hCfFOBcKqYTTyQITyhyD-39" target="hCfFOBcKqYTTyQITyhyD-30" edge="1">
          <mxGeometry relative="1" as="geometry" />
        </mxCell>
        <mxCell id="hCfFOBcKqYTTyQITyhyD-38" style="edgeStyle=none;shape=connector;rounded=0;orthogonalLoop=1;jettySize=auto;html=1;strokeColor=default;align=center;verticalAlign=middle;fontFamily=monospace;fontSize=12;fontColor=default;labelBackgroundColor=default;endArrow=classic;" parent="1" source="hCfFOBcKqYTTyQITyhyD-39" target="hCfFOBcKqYTTyQITyhyD-28" edge="1">
          <mxGeometry relative="1" as="geometry" />
        </mxCell>
        <mxCell id="hCfFOBcKqYTTyQITyhyD-39" value="E" style="rounded=1;whiteSpace=wrap;html=1;fillColor=#333333;fontFamily=monospace;" parent="1" vertex="1">
          <mxGeometry x="250" y="160" width="40" height="40" as="geometry" />
        </mxCell>
        <mxCell id="P-FCiHeKTcraBsnJYNUH-4" style="edgeStyle=none;shape=connector;rounded=0;orthogonalLoop=1;jettySize=auto;html=1;strokeColor=default;align=center;verticalAlign=middle;fontFamily=monospace;fontSize=12;fontColor=default;labelBackgroundColor=default;endArrow=classic;" edge="1" parent="1" source="P-FCiHeKTcraBsnJYNUH-1" target="P-FCiHeKTcraBsnJYNUH-2">
          <mxGeometry relative="1" as="geometry" />
        </mxCell>
        <mxCell id="P-FCiHeKTcraBsnJYNUH-1" value="E" style="rounded=1;whiteSpace=wrap;html=1;fillColor=#333333;fontFamily=monospace;" vertex="1" parent="1">
          <mxGeometry x="180" y="10" width="40" height="40" as="geometry" />
        </mxCell>
        <mxCell id="P-FCiHeKTcraBsnJYNUH-6" style="edgeStyle=none;shape=connector;rounded=0;orthogonalLoop=1;jettySize=auto;html=1;exitX=0;exitY=1;exitDx=0;exitDy=0;entryX=0.5;entryY=0;entryDx=0;entryDy=0;strokeColor=default;align=center;verticalAlign=middle;fontFamily=monospace;fontSize=12;fontColor=default;labelBackgroundColor=default;endArrow=classic;" edge="1" parent="1" source="P-FCiHeKTcraBsnJYNUH-2" target="hCfFOBcKqYTTyQITyhyD-11">
          <mxGeometry relative="1" as="geometry" />
        </mxCell>
        <mxCell id="P-FCiHeKTcraBsnJYNUH-7" style="edgeStyle=none;shape=connector;rounded=0;orthogonalLoop=1;jettySize=auto;html=1;exitX=0.5;exitY=1;exitDx=0;exitDy=0;strokeColor=default;align=center;verticalAlign=middle;fontFamily=monospace;fontSize=12;fontColor=default;labelBackgroundColor=default;endArrow=classic;" edge="1" parent="1" source="P-FCiHeKTcraBsnJYNUH-2" target="hCfFOBcKqYTTyQITyhyD-35">
          <mxGeometry relative="1" as="geometry" />
        </mxCell>
        <mxCell id="P-FCiHeKTcraBsnJYNUH-10" style="edgeStyle=orthogonalEdgeStyle;shape=connector;rounded=0;orthogonalLoop=1;jettySize=auto;html=1;exitX=1;exitY=1;exitDx=0;exitDy=0;strokeColor=default;align=center;verticalAlign=middle;fontFamily=monospace;fontSize=12;fontColor=default;labelBackgroundColor=default;endArrow=classic;curved=1;" edge="1" parent="1" source="P-FCiHeKTcraBsnJYNUH-2" target="hCfFOBcKqYTTyQITyhyD-30">
          <mxGeometry relative="1" as="geometry" />
        </mxCell>
        <mxCell id="P-FCiHeKTcraBsnJYNUH-2" value="" style="ellipse;whiteSpace=wrap;html=1;aspect=fixed;rounded=1;strokeColor=default;align=center;verticalAlign=middle;fontFamily=monospace;fontSize=12;fontColor=default;labelBackgroundColor=default;fillColor=#333333;" vertex="1" parent="1">
          <mxGeometry x="140" y="90" width="10" height="10" as="geometry" />
        </mxCell>
        <mxCell id="P-FCiHeKTcraBsnJYNUH-8" style="edgeStyle=none;shape=connector;rounded=0;orthogonalLoop=1;jettySize=auto;html=1;exitX=0.5;exitY=1;exitDx=0;exitDy=0;strokeColor=default;align=center;verticalAlign=middle;fontFamily=monospace;fontSize=12;fontColor=default;labelBackgroundColor=default;endArrow=classic;" edge="1" parent="1" source="P-FCiHeKTcraBsnJYNUH-3" target="hCfFOBcKqYTTyQITyhyD-14">
          <mxGeometry relative="1" as="geometry" />
        </mxCell>
        <mxCell id="P-FCiHeKTcraBsnJYNUH-9" style="edgeStyle=none;shape=connector;rounded=0;orthogonalLoop=1;jettySize=auto;html=1;exitX=1;exitY=1;exitDx=0;exitDy=0;strokeColor=default;align=center;verticalAlign=middle;fontFamily=monospace;fontSize=12;fontColor=default;labelBackgroundColor=default;endArrow=classic;" edge="1" parent="1" source="P-FCiHeKTcraBsnJYNUH-3" target="hCfFOBcKqYTTyQITyhyD-39">
          <mxGeometry relative="1" as="geometry" />
        </mxCell>
        <mxCell id="P-FCiHeKTcraBsnJYNUH-11" style="edgeStyle=orthogonalEdgeStyle;shape=connector;rounded=0;orthogonalLoop=1;jettySize=auto;html=1;exitX=0;exitY=1;exitDx=0;exitDy=0;strokeColor=default;align=center;verticalAlign=middle;fontFamily=monospace;fontSize=12;fontColor=default;labelBackgroundColor=default;endArrow=classic;curved=1;" edge="1" parent="1" source="P-FCiHeKTcraBsnJYNUH-3" target="hCfFOBcKqYTTyQITyhyD-5">
          <mxGeometry relative="1" as="geometry" />
        </mxCell>
        <mxCell id="P-FCiHeKTcraBsnJYNUH-3" value="" style="ellipse;whiteSpace=wrap;html=1;aspect=fixed;rounded=1;strokeColor=default;align=center;verticalAlign=middle;fontFamily=monospace;fontSize=12;fontColor=default;labelBackgroundColor=default;fillColor=#333333;" vertex="1" parent="1">
          <mxGeometry x="250" y="90" width="10" height="10" as="geometry" />
        </mxCell>
        <mxCell id="P-FCiHeKTcraBsnJYNUH-5" style="edgeStyle=none;shape=connector;rounded=0;orthogonalLoop=1;jettySize=auto;html=1;strokeColor=default;align=center;verticalAlign=middle;fontFamily=monospace;fontSize=12;fontColor=default;labelBackgroundColor=default;endArrow=classic;" edge="1" parent="1" source="P-FCiHeKTcraBsnJYNUH-1" target="P-FCiHeKTcraBsnJYNUH-3">
          <mxGeometry relative="1" as="geometry" />
        </mxCell>
      </root>
    </mxGraphModel>
  </diagram>
</mxfile>
